EMG
version=1
nRows=41
nColumns=17
inDegrees=no
endheader
time	_right_gast_med	_right_glut_max	_left_gast_med	_left_glut_max	_right_glut_med	_right_bic_fem	_right_rect_fem	_right_vast_lat	_right_vast_med	_right_tens_fasc_lat	_left_glut_med	_left_bic_fem	_left_rect_fem	_left_vast_lat	_left_vast_med	_left_tens_fasc_lat
      0.00000000	      0.21561041	     -0.07889627	      0.07087249	      0.06592164	     -0.01174578	     -0.00196740	     -0.00309763	     -0.01015768	     -0.00186737	      0.00722674	      0.01118043	      0.00288682	      0.00580799	      0.00341552	      0.02836241	      0.03501855
      0.01000000	      0.16281879	     -0.05761194	      0.02957900	      0.08544739	     -0.00608510	     -0.00155834	     -0.00290586	     -0.00339655	     -0.00191948	      0.00485477	      0.00819555	      0.00579117	      0.00800527	      0.00702884	      0.02062798	      0.01845563
      0.02000000	      0.12267559	     -0.02788876	     -0.02260438	      0.08002578	      0.00654044	     -0.00170661	      0.00258238	      0.00909887	     -0.00239379	      0.00623733	      0.00619574	      0.00904308	      0.00954927	      0.00711283	      0.00995557	      0.00351923
      0.03000000	      0.09677682	     -0.00000495	     -0.05166574	      0.04770940	      0.01423749	     -0.00256580	      0.00624977	      0.01249898	     -0.00065416	      0.01113406	      0.00657033	      0.01268435	      0.01180778	      0.01402113	     -0.01926094	     -0.00003698
      0.04000000	      0.07478514	      0.01432059	     -0.01728474	      0.02275222	      0.01258340	     -0.00038470	      0.00793167	      0.00546939	     -0.00057685	      0.01350736	      0.00690084	      0.01332028	      0.01311834	      0.01780147	     -0.06770433	      0.00734239
      0.05000000	      0.05759994	      0.01082410	      0.03894919	      0.02295191	      0.00594096	      0.00700474	      0.01734490	      0.00710903	     -0.00353206	      0.01176936	      0.00500365	      0.01464235	      0.01311550	     -0.01189090	     -0.07072317	      0.02185936
      0.06000000	      0.04273479	     -0.00102069	      0.06902613	      0.01217898	      0.00766141	      0.01664803	      0.02524296	      0.02180659	     -0.00418184	      0.01133591	     -0.00003791	      0.02268624	      0.01178641	     -0.04899512	      0.00924009	      0.02992950
      0.07000000	      0.02189041	     -0.00786348	      0.03897389	     -0.01692265	      0.01365416	      0.02740796	      0.02001761	      0.03105249	     -0.00229289	      0.01537945	     -0.00275579	      0.02994864	      0.00674362	     -0.03203125	      0.08802098	      0.02249114
      0.08000000	      0.00470401	     -0.00782941	     -0.00093389	     -0.02559740	      0.01136719	      0.03230205	      0.01120262	      0.02745694	     -0.00404681	      0.01793877	     -0.00089638	      0.02525598	      0.00369853	      0.00869530	      0.09755639	      0.00849718
      0.09000000	      0.00758056	     -0.00510504	     -0.01105120	      0.00040487	      0.00502099	      0.02849957	      0.00517110	      0.01778430	      0.00084244	      0.01883284	      0.00021098	      0.01795580	      0.01113259	      0.02132864	      0.05686060	      0.00233168
      0.10000000	      0.01531505	      0.00088378	     -0.02557854	      0.04715171	      0.00273339	      0.01962581	      0.00491121	      0.00509572	      0.01688619	      0.01787228	      0.00057678	      0.01587971	      0.01912951	      0.01680057	      0.00191631	      0.01127758
      0.11000000	      0.00926909	      0.01172684	     -0.03294548	      0.07500161	      0.00275154	      0.01296535	      0.00752186	      0.00960894	     -0.00122933	      0.01702528	      0.00480171	      0.01471656	      0.01646494	      0.01718224	     -0.04356486	      0.02694423
      0.12000000	     -0.00107851	      0.02194230	      0.00187040	      0.07029644	      0.00233328	      0.01544350	      0.01185760	      0.01692815	     -0.12789869	      0.02307581	      0.01046265	      0.00617363	      0.01122339	      0.02056128	     -0.04161551	      0.03104055
      0.13000000	     -0.01326148	      0.02810396	      0.04486941	      0.05693714	      0.00098804	      0.01984042	      0.03327268	     -0.00179024	     -0.35537499	      0.02876765	      0.01525662	     -0.00234027	      0.00716186	      0.02371942	      0.00128105	      0.02381530
      0.14000000	     -0.02224100	      0.03319805	      0.04644840	      0.05186925	      0.00155116	      0.02089179	      0.05405967	     -0.00858455	     -0.44508731	      0.03322985	      0.01850685	      0.00200039	      0.00538947	      0.02722996	      0.01275856	      0.01842931
      0.15000000	     -0.02275254	      0.02577221	     -0.01435611	      0.04940929	      0.00546838	      0.01777768	      0.03038271	      0.01696325	     -0.16593927	      0.03310321	      0.01821075	      0.01037716	      0.00760154	      0.02254200	     -0.01326565	      0.01381042
      0.16000000	     -0.01980912	     -0.00760310	     -0.04387651	      0.03324623	      0.00597828	      0.00386501	     -0.02003804	      0.03424368	      0.25557145	      0.01741625	      0.01455874	      0.00995552	      0.00937384	      0.01106082	     -0.02287695	      0.01018658
      0.17000000	     -0.01749221	     -0.03153825	      0.00836042	      0.00585462	      0.00004731	     -0.00662669	     -0.04903219	      0.00928044	      0.44890535	      0.00660241	      0.01127739	      0.00553765	      0.00954261	      0.00637573	     -0.00441196	      0.01007434
      0.18000000	     -0.01716300	     -0.02411112	      0.01085569	     -0.02134651	     -0.00580370	      0.00350640	     -0.05093589	     -0.01805956	      0.37132797	      0.03180915	      0.00922134	      0.00418277	      0.00808095	      0.01146070	      0.01745011	      0.00847074
      0.19000000	     -0.01493887	     -0.01154716	     -0.00081903	     -0.04677044	     -0.00658850	      0.01267110	     -0.03284808	     -0.00709219	      0.19554125	      0.06423285	      0.00798316	      0.00400954	      0.00719063	      0.01539310	      0.02900727	      0.00049206
      0.20000000	     -0.01106230	     -0.00188909	      0.02237801	     -0.07412980	     -0.00474677	      0.00189434	     -0.01218891	      0.00579899	      0.08556525	      0.05643006	      0.00864268	      0.00306286	      0.00935209	      0.01200110	      0.02745458	     -0.01055360
      0.21000000	     -0.01211006	      0.01353250	      0.02704197	     -0.09904444	     -0.00441408	     -0.00926632	      0.00765516	      0.00588003	      0.07214750	      0.00597910	      0.01284191	      0.00205990	      0.01099404	      0.00873694	      0.01987796	     -0.01520019
      0.22000000	     -0.01126307	      0.02807912	      0.02033304	     -0.11252403	     -0.00421260	      0.00250654	      0.02708965	     -0.02052067	      0.08363669	     -0.04364310	      0.01851809	      0.00466941	      0.01249640	      0.01135258	      0.02323693	     -0.01496887
      0.23000000	      0.00186345	      0.03041789	      0.01569641	     -0.10701038	     -0.00340051	      0.02254151	      0.03775021	     -0.03522192	      0.04081739	     -0.04541361	      0.01680564	      0.01173079	      0.01161264	      0.01422324	      0.03051570	     -0.02011204
      0.24000000	     -0.00815522	      0.03589549	      0.01074683	     -0.08771685	     -0.00012165	      0.03686955	      0.03378922	     -0.00537426	     -0.02962096	     -0.02602042	      0.00790415	      0.01338133	      0.01036043	      0.01159443	      0.01999986	     -0.02556495
      0.25000000	     -0.08086961	      0.04058262	      0.00613755	     -0.07619661	      0.00390738	      0.01261168	      0.00969891	      0.02592961	     -0.04934990	     -0.00525093	      0.00190832	      0.00831953	      0.01224594	      0.00705725	      0.00744365	     -0.02063243
      0.26000000	      0.13611439	      0.00339800	      0.00465410	     -0.07746896	      0.00598222	     -0.05005721	      0.00808510	      0.02507995	      0.00651739	      0.00814768	      0.00114210	      0.00484260	      0.01056982	     -0.00079899	      0.02906574	     -0.01380612
      0.27000000	      0.95499605	     -0.04610571	      0.00910302	     -0.08376885	      0.00653948	     -0.05919706	      0.01655148	     -0.00411327	      0.08720258	     -0.01790669	      0.00058030	      0.00409573	      0.00606144	     -0.00818789	      0.08487675	     -0.00620951
      0.28000000	      0.78722245	     -0.04555828	      0.01012655	     -0.08585601	      0.00474617	     -0.01874650	      0.01741296	      0.04348476	      0.10171025	     -0.04495249	     -0.00050928	      0.00369286	      0.00520350	     -0.00644773	      0.11260029	      0.01803403
      0.29000000	     -0.97499329	     -0.00638968	      0.00390633	     -0.05834317	      0.00683700	      0.01045477	      0.01034921	      0.14003497	      0.04562242	     -0.04089822	     -0.00294873	      0.00106502	      0.01196001	      0.00551951	      0.04499440	      0.04822957
      0.30000000	     -1.10755801	      0.04105011	     -0.00796732	      0.01591672	      0.02119870	      0.03692787	     -0.00406966	      0.12427647	     -0.01025510	     -0.03315927	     -0.00333427	     -0.00732736	      0.01800265	      0.02788556	     -0.06834240	      0.04682032
      0.31000000	      1.14987230	      0.09172949	     -0.01970204	      0.06437258	      0.03297109	      0.04256730	     -0.01272669	     -0.01573485	     -0.04552271	     -0.03382121	      0.00196726	     -0.01248817	      0.01609342	      0.04420646	     -0.09172221	      0.01913678
      0.32000000	      1.71266592	      0.08563979	     -0.01736793	      0.02233138	      0.02860358	      0.00577487	     -0.00687257	     -0.08548386	     -0.07504020	     -0.02251949	      0.00992342	     -0.00747846	      0.01377135	      0.02943812	     -0.02316465	      0.01106873
      0.33000000	      0.33829510	     -0.03374508	      0.00392236	     -0.05043608	      0.02080861	     -0.01452978	      0.00772563	     -0.03335102	     -0.11668060	      0.00491154	      0.01351748	     -0.00303041	      0.01515883	     -0.00928632	      0.00090555	      0.03252006
      0.34000000	     -0.03380261	     -0.15751027	      0.02807617	     -0.09736452	      0.01807402	      0.00898444	      0.00626112	     -0.00585263	     -0.13557167	      0.03497645	      0.00743704	     -0.01383892	      0.01155175	     -0.03235146	     -0.01472903	      0.04975469
      0.35000000	      0.49800912	     -0.08551422	      0.04158856	     -0.07467422	      0.01634860	      0.02649006	     -0.00047504	     -0.02160184	     -0.08930029	      0.06142252	     -0.00649409	     -0.03196526	     -0.00362833	     -0.02045020	     -0.00614135	      0.03654245
      0.36000000	     -0.30604890	      0.13729694	      0.04422789	      0.01796622	      0.00494350	      0.01743117	      0.00721298	     -0.02378194	      0.00465400	      0.06686318	     -0.01154009	     -0.02648278	     -0.01478700	      0.01073170	      0.01081833	      0.00927846
      0.37000000	     -1.85297501	      0.23004486	      0.03365949	      0.08514472	     -0.01220168	      0.01054205	      0.01518279	     -0.00045471	      0.09038276	      0.03767059	     -0.00050310	      0.01376755	     -0.00574994	      0.03587405	      0.03395787	     -0.01468514
      0.38000000	     -0.83462536	      0.15002173	      0.01408450	      0.06287473	     -0.01513849	      0.01017639	      0.01776671	      0.01792510	      0.10654195	     -0.00061084	      0.01365630	      0.05915108	      0.00975144	      0.04042200	      0.05657140	     -0.02371174
      0.39000000	      1.50650609	      0.04696613	     -0.00566998	      0.01866190	     -0.00035481	      0.00951411	      0.02141049	      0.02103250	      0.04895686	     -0.01460170	      0.02440408	      0.07583504	      0.01564873	      0.02480557	      0.05024305	     -0.00974344
      0.40000000	      1.86579478	     -0.01447348	     -0.00967653	      0.04723972	      0.01835488	      0.01147962	      0.02104817	      0.02126726	     -0.01869973	     -0.00377434	      0.02989839	      0.06044787	      0.01106054	      0.00333111	      0.01191796	      0.01650005
